<?xml version="1.0" encoding="utf-8" standalone="yes"?>
<!DOCTYPE svg PUBLIC "-//W3C//DTD SVG 1.1//EN" "http://www.w3.org/Graphics/SVG/1.1/DTD/svg11.dtd">
<svg xmlns:xlink="http://www.w3.org/1999/xlink" viewBox="0 0 683 327" class="barcode-canvas" version="1.1" style="shape-rendering:crispEdges;" xmlns="http://www.w3.org/2000/svg">
  <g text-rendering="geometricPrecision">
    <rect x="0" y="0" width="683" height="327" fill="#ffffff" />
    <rect x="7" y="7" width="10" height="242" fill="#000000" />
    <rect x="22" y="7" width="5" height="242" fill="#000000" />
    <rect x="37" y="7" width="5" height="242" fill="#000000" />
    <rect x="62" y="7" width="5" height="242" fill="#000000" />
    <rect x="77" y="7" width="5" height="242" fill="#000000" />
    <rect x="87" y="7" width="10" height="242" fill="#000000" />
    <rect x="117" y="7" width="5" height="242" fill="#000000" />
    <rect x="142" y="7" width="5" height="242" fill="#000000" />
    <rect x="157" y="7" width="10" height="242" fill="#000000" />
    <rect x="172" y="7" width="5" height="242" fill="#000000" />
    <rect x="197" y="7" width="5" height="242" fill="#000000" />
    <rect x="212" y="7" width="10" height="242" fill="#000000" />
    <rect x="227" y="7" width="5" height="242" fill="#000000" />
    <rect x="252" y="7" width="5" height="242" fill="#000000" />
    <rect x="262" y="7" width="10" height="242" fill="#000000" />
    <rect x="282" y="7" width="5" height="242" fill="#000000" />
    <rect x="297" y="7" width="5" height="242" fill="#000000" />
    <rect x="312" y="7" width="20" height="242" fill="#000000" />
    <rect x="337" y="7" width="5" height="242" fill="#000000" />
    <rect x="347" y="7" width="10" height="242" fill="#000000" />
    <rect x="367" y="7" width="5" height="242" fill="#000000" />
    <rect x="392" y="7" width="5" height="242" fill="#000000" />
    <rect x="407" y="7" width="5" height="242" fill="#000000" />
    <rect x="417" y="7" width="10" height="242" fill="#000000" />
    <rect x="447" y="7" width="5" height="242" fill="#000000" />
    <rect x="462" y="7" width="20" height="242" fill="#000000" />
    <rect x="487" y="7" width="5" height="242" fill="#000000" />
    <rect x="502" y="7" width="5" height="242" fill="#000000" />
    <rect x="512" y="7" width="10" height="242" fill="#000000" />
    <rect x="532" y="7" width="5" height="242" fill="#000000" />
    <rect x="557" y="7" width="10" height="242" fill="#000000" />
    <rect x="572" y="7" width="15" height="242" fill="#000000" />
    <rect x="592" y="7" width="15" height="242" fill="#000000" />
    <rect x="612" y="7" width="10" height="242" fill="#000000" />
    <rect x="637" y="7" width="15" height="242" fill="#000000" />
    <rect x="657" y="7" width="5" height="242" fill="#000000" />
    <rect x="667" y="7" width="10" height="242" fill="#000000" />
    <g transform="translate(226, 252)">
      <path d="M 20.354 23.621 C 26.096 23.621 28.835 26.074 28.835 31.729 L 28.835 48.098 L 26.177 48.098 L 25.474 44.539 L 25.298 44.539 C 24.624 45.417 23.921 46.154 23.188 46.747 C 22.456 47.34 21.61 47.787 20.651 48.087 C 19.691 48.387 18.516 48.538 17.124 48.538 C 15.659 48.538 14.359 48.281 13.224 47.769 C 12.089 47.256 11.195 46.479 10.543 45.439 C 9.891 44.399 9.565 43.081 9.565 41.484 C 9.565 36.68 13.33 34.072 21.123 33.838 L 25.276 33.662 L 25.276 32.19 C 25.276 28.03 23.408 26.565 20.156 26.565 C 17.637 26.565 15.352 27.415 13.301 28.411 L 12.18 25.642 C 14.348 24.529 17.249 23.621 20.354 23.621 Z M 25.232 36.233 L 21.562 36.387 C 15.557 36.621 13.367 38.364 13.367 41.528 C 13.367 44.282 15.183 45.571 17.937 45.571 C 22.214 45.571 25.232 43.198 25.232 38.452 Z M 45.67 48.538 C 39.576 48.538 35.76 44.348 35.76 36.145 C 35.76 27.854 39.7 23.577 45.735 23.577 C 47.01 23.577 48.123 23.745 49.075 24.082 C 50.027 24.419 50.848 24.869 51.536 25.433 C 52.225 25.997 52.803 26.638 53.272 27.356 L 53.536 27.356 C 53.419 26.448 53.272 24.551 53.272 23.555 L 53.272 13.909 L 56.92 13.909 L 56.92 48.098 L 53.975 48.098 L 53.426 44.67 L 53.272 44.67 C 52.818 45.388 52.243 46.04 51.547 46.626 C 50.851 47.212 50.024 47.677 49.064 48.021 C 48.105 48.365 46.973 48.538 45.67 48.538 Z M 46.241 45.505 C 51.397 45.505 53.316 42.554 53.316 36.782 L 53.316 36.123 C 53.316 30 51.602 26.609 46.241 26.609 C 41.758 26.609 39.539 30.286 39.539 36.233 C 39.539 42.151 41.729 45.505 46.241 45.505 Z M 74.027 48.538 C 67.934 48.538 64.118 44.348 64.118 36.145 C 64.118 27.854 68.058 23.577 74.093 23.577 C 75.368 23.577 76.481 23.745 77.433 24.082 C 78.385 24.419 79.205 24.869 79.894 25.433 C 80.582 25.997 81.161 26.638 81.63 27.356 L 81.893 27.356 C 81.776 26.448 81.63 24.551 81.63 23.555 L 81.63 13.909 L 85.277 13.909 L 85.277 48.098 L 82.333 48.098 L 81.784 44.67 L 81.63 44.67 C 81.176 45.388 80.601 46.04 79.905 46.626 C 79.209 47.212 78.382 47.677 77.422 48.021 C 76.463 48.365 75.331 48.538 74.027 48.538 Z M 74.599 45.505 C 79.755 45.505 81.674 42.554 81.674 36.782 L 81.674 36.123 C 81.674 30 79.96 26.609 74.599 26.609 C 70.116 26.609 67.897 30.286 67.897 36.233 C 67.897 42.151 70.087 45.505 74.599 45.505 Z M 103.462 48.538 C 101.294 48.538 99.382 48.091 97.727 47.197 C 96.071 46.304 94.782 44.941 93.86 43.11 C 92.937 41.279 92.475 38.972 92.475 36.189 C 92.475 33.274 92.962 30.89 93.936 29.037 C 94.911 27.184 96.255 25.811 97.968 24.917 C 99.682 24.023 101.631 23.577 103.813 23.577 C 106.216 23.577 108.618 24.119 110.053 24.851 L 108.955 27.905 C 107.49 27.319 105.395 26.763 103.725 26.763 C 102.055 26.763 100.667 27.122 99.561 27.839 C 98.456 28.557 97.628 29.612 97.079 31.003 C 96.529 32.395 96.255 34.109 96.255 36.145 C 96.255 38.093 96.522 39.756 97.057 41.133 C 97.591 42.51 98.39 43.561 99.452 44.286 C 100.514 45.011 101.843 45.374 103.44 45.374 C 105.988 45.374 108.01 44.744 109.68 44.011 L 109.68 47.263 C 108.069 48.083 106.186 48.538 103.462 48.538 Z M 126.96 23.577 C 127.927 23.577 129.062 23.687 129.882 23.862 L 129.421 27.246 C 128.63 27.041 127.59 26.917 126.74 26.917 C 125.773 26.917 124.861 27.111 124.005 27.499 C 123.148 27.887 122.397 28.444 121.752 29.169 C 121.108 29.894 120.602 30.765 120.236 31.783 C 119.87 32.802 119.687 33.933 119.687 35.178 L 119.687 48.098 L 116.017 48.098 L 116.017 24.016 L 119.05 24.016 L 119.445 28.455 L 119.599 28.455 C 120.097 27.561 120.698 26.744 121.401 26.005 C 122.104 25.265 122.921 24.675 123.851 24.236 C 124.781 23.796 125.817 23.577 126.96 23.577 Z M 144.233 23.577 C 146.284 23.577 148.041 24.031 149.506 24.939 C 150.971 25.847 152.092 27.118 152.868 28.751 C 153.644 30.385 154.033 32.292 154.033 34.475 L 154.033 36.738 L 137.399 36.738 C 137.487 42.393 140.314 45.417 145.265 45.417 C 148.312 45.417 150.436 44.854 152.956 43.77 L 152.956 46.978 C 150.524 48.062 148.364 48.538 145.112 48.538 C 142.797 48.538 140.779 48.065 139.058 47.12 C 137.337 46.176 136 44.788 135.048 42.957 C 134.096 41.125 133.62 38.884 133.62 36.233 C 133.62 33.64 134.056 31.395 134.927 29.498 C 135.799 27.601 137.029 26.14 138.619 25.115 C 140.208 24.089 142.079 23.577 144.233 23.577 Z M 144.189 26.565 C 140.292 26.565 137.905 29.246 137.465 33.816 L 150.209 33.816 C 150.195 32.38 149.971 31.117 149.539 30.026 C 149.107 28.934 148.452 28.085 147.573 27.477 C 146.694 26.869 145.566 26.565 144.189 26.565 Z M 169.996 23.621 C 175.738 23.621 178.477 26.074 178.477 31.729 L 178.477 48.098 L 175.818 48.098 L 175.115 44.539 L 174.94 44.539 C 174.266 45.417 173.563 46.154 172.83 46.747 C 172.098 47.34 171.252 47.787 170.292 48.087 C 169.333 48.387 168.157 48.538 166.766 48.538 C 165.301 48.538 164.001 48.281 162.866 47.769 C 161.73 47.256 160.837 46.479 160.185 45.439 C 159.533 44.399 159.207 43.081 159.207 41.484 C 159.207 36.68 162.972 34.072 170.765 33.838 L 174.918 33.662 L 174.918 32.19 C 174.918 28.03 173.05 26.565 169.798 26.565 C 167.278 26.565 164.993 27.415 162.942 28.411 L 161.822 25.642 C 163.99 24.529 166.89 23.621 169.996 23.621 Z M 174.874 36.233 L 171.204 36.387 C 165.198 36.621 163.008 38.364 163.008 41.528 C 163.008 44.282 164.825 45.571 167.579 45.571 C 171.856 45.571 174.874 43.198 174.874 38.452 Z M 194.52 45.549 C 195.721 45.549 197.113 45.315 197.904 45.022 L 197.904 47.856 C 197.054 48.237 195.363 48.538 193.927 48.538 C 192.653 48.538 191.495 48.314 190.455 47.867 C 189.415 47.421 188.584 46.663 187.961 45.593 C 187.339 44.524 187.028 43.044 187.028 41.155 L 187.028 26.873 L 183.6 26.873 L 183.6 25.093 L 187.05 23.665 L 188.5 18.435 L 190.697 18.435 L 190.697 24.016 L 197.75 24.016 L 197.75 26.873 L 190.697 26.873 L 190.697 41.045 C 190.697 44.062 192.206 45.549 194.52 45.549 Z M 212.536 23.577 C 214.586 23.577 216.344 24.031 217.809 24.939 C 219.274 25.847 220.395 27.118 221.171 28.751 C 221.947 30.385 222.335 32.292 222.335 34.475 L 222.335 36.738 L 205.702 36.738 C 205.79 42.393 208.617 45.417 213.568 45.417 C 216.615 45.417 218.739 44.854 221.259 43.77 L 221.259 46.978 C 218.827 48.062 216.667 48.538 213.415 48.538 C 211.1 48.538 209.082 48.065 207.361 47.12 C 205.64 46.176 204.303 44.788 203.351 42.957 C 202.399 41.125 201.923 38.884 201.923 36.233 C 201.923 33.64 202.359 31.395 203.23 29.498 C 204.102 27.601 205.332 26.14 206.922 25.115 C 208.511 24.089 210.382 23.577 212.536 23.577 Z M 212.492 26.565 C 208.595 26.565 206.208 29.246 205.768 33.816 L 218.512 33.816 C 218.498 32.38 218.274 31.117 217.842 30.026 C 217.41 28.934 216.754 28.085 215.875 27.477 C 214.997 26.869 213.869 26.565 212.492 26.565 Z " fill="#000000" shape-rendering="geometricPrecision" />
    </g>
  </g>
</svg>