<?xml version="1.0" encoding="utf-8" standalone="yes"?>
<!DOCTYPE svg PUBLIC "-//W3C//DTD SVG 1.1//EN" "http://www.w3.org/Graphics/SVG/1.1/DTD/svg11.dtd">
<svg xmlns:xlink="http://www.w3.org/1999/xlink" viewBox="0 0 573 327" class="barcode-canvas" version="1.1" style="shape-rendering:crispEdges;" xmlns="http://www.w3.org/2000/svg">
  <g text-rendering="geometricPrecision">
    <rect x="0" y="0" width="573" height="327" fill="#ffffff" />
    <rect x="7" y="7" width="10" height="242" fill="#000000" />
    <rect x="22" y="7" width="5" height="242" fill="#000000" />
    <rect x="37" y="7" width="5" height="242" fill="#000000" />
    <rect x="62" y="7" width="5" height="242" fill="#000000" />
    <rect x="87" y="7" width="5" height="242" fill="#000000" />
    <rect x="97" y="7" width="10" height="242" fill="#000000" />
    <rect x="117" y="7" width="5" height="242" fill="#000000" />
    <rect x="137" y="7" width="20" height="242" fill="#000000" />
    <rect x="162" y="7" width="5" height="242" fill="#000000" />
    <rect x="172" y="7" width="10" height="242" fill="#000000" />
    <rect x="202" y="7" width="5" height="242" fill="#000000" />
    <rect x="212" y="7" width="5" height="242" fill="#000000" />
    <rect x="227" y="7" width="5" height="242" fill="#000000" />
    <rect x="237" y="7" width="20" height="242" fill="#000000" />
    <rect x="267" y="7" width="5" height="242" fill="#000000" />
    <rect x="282" y="7" width="5" height="242" fill="#000000" />
    <rect x="297" y="7" width="20" height="242" fill="#000000" />
    <rect x="327" y="7" width="5" height="242" fill="#000000" />
    <rect x="337" y="7" width="20" height="242" fill="#000000" />
    <rect x="362" y="7" width="15" height="242" fill="#000000" />
    <rect x="382" y="7" width="5" height="242" fill="#000000" />
    <rect x="392" y="7" width="5" height="242" fill="#000000" />
    <rect x="402" y="7" width="10" height="242" fill="#000000" />
    <rect x="422" y="7" width="5" height="242" fill="#000000" />
    <rect x="447" y="7" width="20" height="242" fill="#000000" />
    <rect x="472" y="7" width="5" height="242" fill="#000000" />
    <rect x="482" y="7" width="15" height="242" fill="#000000" />
    <rect x="502" y="7" width="10" height="242" fill="#000000" />
    <rect x="527" y="7" width="15" height="242" fill="#000000" />
    <rect x="547" y="7" width="5" height="242" fill="#000000" />
    <rect x="557" y="7" width="10" height="242" fill="#000000" />
    <g transform="translate(181, 252)">
      <path d="M 20.991 48.538 C 18.823 48.538 16.912 48.091 15.256 47.197 C 13.601 46.304 12.312 44.941 11.389 43.11 C 10.466 41.279 10.005 38.972 10.005 36.189 C 10.005 33.274 10.492 30.89 11.466 29.037 C 12.44 27.184 13.784 25.811 15.498 24.917 C 17.212 24.023 19.16 23.577 21.343 23.577 C 23.745 23.577 26.147 24.119 27.583 24.851 L 26.484 27.905 C 25.02 27.319 22.925 26.763 21.255 26.763 C 19.585 26.763 18.197 27.122 17.091 27.839 C 15.985 28.557 15.157 29.612 14.608 31.003 C 14.059 32.395 13.784 34.109 13.784 36.145 C 13.784 38.093 14.052 39.756 14.586 41.133 C 15.121 42.51 15.919 43.561 16.981 44.286 C 18.043 45.011 19.373 45.374 20.969 45.374 C 23.518 45.374 25.54 44.744 27.209 44.011 L 27.209 47.263 C 25.598 48.083 23.716 48.538 20.991 48.538 Z M 54.311 36.013 C 54.311 37.991 54.055 39.756 53.542 41.309 C 53.029 42.861 52.29 44.172 51.323 45.242 C 50.356 46.311 49.188 47.128 47.818 47.692 C 46.449 48.256 44.9 48.538 43.171 48.538 C 41.56 48.538 40.084 48.256 38.744 47.692 C 37.403 47.128 36.246 46.311 35.272 45.242 C 34.298 44.172 33.543 42.861 33.009 41.309 C 32.474 39.756 32.207 37.991 32.207 36.013 C 32.207 33.376 32.653 31.132 33.547 29.279 C 34.441 27.426 35.719 26.012 37.381 25.038 C 39.044 24.064 41.025 23.577 43.325 23.577 C 45.522 23.577 47.445 24.067 49.093 25.049 C 50.741 26.03 52.022 27.448 52.938 29.301 C 53.853 31.154 54.311 33.391 54.311 36.013 Z M 35.986 36.013 C 35.986 37.947 36.242 39.624 36.755 41.045 C 37.268 42.466 38.059 43.564 39.128 44.341 C 40.197 45.117 41.574 45.505 43.259 45.505 C 44.929 45.505 46.302 45.117 47.379 44.341 C 48.455 43.564 49.25 42.466 49.763 41.045 C 50.276 39.624 50.532 37.947 50.532 36.013 C 50.532 34.094 50.276 32.435 49.763 31.036 C 49.25 29.637 48.459 28.557 47.39 27.795 C 46.32 27.034 44.936 26.653 43.237 26.653 C 38.227 26.653 35.986 30.154 35.986 36.013 Z M 72.833 23.577 C 78.546 23.577 81.512 26.228 81.512 32.41 L 81.512 48.098 L 77.909 48.098 L 77.909 32.651 C 77.909 28.638 76.107 26.653 72.328 26.653 C 66.996 26.653 65.077 29.744 65.077 35.486 L 65.077 48.098 L 61.429 48.098 L 61.429 24.016 L 64.374 24.016 L 64.923 27.488 L 65.121 27.488 C 65.634 26.638 66.285 25.924 67.076 25.345 C 67.867 24.767 68.754 24.327 69.735 24.027 C 70.717 23.727 71.749 23.577 72.833 23.577 Z M 105.434 41.506 C 105.434 43.044 105.049 44.337 104.28 45.385 C 103.511 46.432 102.412 47.219 100.984 47.747 C 99.556 48.274 97.853 48.538 95.876 48.538 C 92.506 48.538 90.119 47.988 88.273 47.021 L 88.273 43.66 C 90.236 44.626 93.122 45.571 95.963 45.571 C 100.124 45.571 101.896 44.128 101.896 41.814 C 101.896 41.155 101.709 40.573 101.336 40.067 C 100.962 39.562 100.336 39.071 99.457 38.595 C 98.578 38.119 97.362 37.595 95.81 37.024 C 94.272 36.438 92.942 35.856 91.822 35.277 C 90.701 34.698 89.837 33.992 89.229 33.157 C 88.621 32.322 88.317 31.238 88.317 29.905 C 88.317 25.833 91.92 23.577 97.282 23.577 C 100.182 23.577 102.709 24.192 104.906 25.159 L 103.676 28.081 C 101.684 27.231 99.384 26.565 97.04 26.565 C 93.671 26.565 91.811 27.751 91.811 29.685 C 91.811 30.432 92.019 31.047 92.437 31.531 C 92.854 32.014 93.524 32.468 94.447 32.893 C 95.37 33.318 96.586 33.816 98.095 34.387 C 99.604 34.944 100.907 35.519 102.006 36.112 C 103.105 36.705 103.951 37.423 104.544 38.265 C 105.137 39.108 105.434 40.188 105.434 41.506 Z M 131.829 24.016 L 131.829 48.098 L 128.841 48.098 L 128.313 44.714 L 128.116 44.714 C 127.618 45.549 126.973 46.252 126.182 46.824 C 125.391 47.395 124.501 47.823 123.512 48.109 C 122.524 48.395 121.473 48.538 120.359 48.538 C 118.455 48.538 116.858 48.23 115.569 47.615 C 114.28 47 113.31 46.047 112.658 44.758 C 112.006 43.469 111.68 41.814 111.68 39.792 L 111.68 24.016 L 115.371 24.016 L 115.371 39.529 C 115.371 43.542 117.166 45.505 120.887 45.505 C 122.674 45.505 124.098 45.168 125.16 44.495 C 126.222 43.821 126.988 42.828 127.456 41.517 C 127.925 40.206 128.16 38.599 128.16 36.694 L 128.16 24.016 Z M 166.517 23.577 C 171.82 23.577 174.537 26.199 174.537 32.322 L 174.537 48.098 L 170.933 48.098 L 170.933 32.498 C 170.933 28.601 169.234 26.653 165.924 26.653 C 161.265 26.653 159.266 29.385 159.266 34.629 L 159.266 48.098 L 155.64 48.098 L 155.64 32.498 C 155.64 31.194 155.454 30.11 155.08 29.246 C 154.706 28.381 154.15 27.733 153.41 27.301 C 152.67 26.869 151.736 26.653 150.609 26.653 C 149.012 26.653 147.73 26.982 146.763 27.642 C 145.797 28.301 145.097 29.279 144.665 30.575 C 144.233 31.871 144.017 33.464 144.017 35.354 L 144.017 48.098 L 140.369 48.098 L 140.369 24.016 L 143.314 24.016 L 143.863 27.422 L 144.061 27.422 C 144.544 26.587 145.152 25.884 145.884 25.312 C 146.617 24.741 147.437 24.309 148.345 24.016 C 149.254 23.723 150.22 23.577 151.246 23.577 C 154.908 23.577 157.427 24.924 158.541 27.708 L 158.738 27.708 C 160.32 24.924 163.236 23.577 166.517 23.577 Z M 192.552 23.577 C 194.603 23.577 196.36 24.031 197.825 24.939 C 199.29 25.847 200.411 27.118 201.187 28.751 C 201.963 30.385 202.352 32.292 202.352 34.475 L 202.352 36.738 L 185.718 36.738 C 185.806 42.393 188.633 45.417 193.584 45.417 C 196.631 45.417 198.755 44.854 201.275 43.77 L 201.275 46.978 C 198.843 48.062 196.683 48.538 193.431 48.538 C 191.116 48.538 189.098 48.065 187.377 47.12 C 185.656 46.176 184.319 44.788 183.367 42.957 C 182.415 41.125 181.939 38.884 181.939 36.233 C 181.939 33.64 182.375 31.395 183.246 29.498 C 184.118 27.601 185.348 26.14 186.938 25.115 C 188.527 24.089 190.398 23.577 192.552 23.577 Z M 192.508 26.565 C 188.611 26.565 186.224 29.246 185.784 33.816 L 198.528 33.816 C 198.514 32.38 198.29 31.117 197.858 30.026 C 197.426 28.934 196.77 28.085 195.892 27.477 C 195.013 26.869 193.885 26.565 192.508 26.565 Z " fill="#000000" shape-rendering="geometricPrecision" />
    </g>
  </g>
</svg>