<?xml version="1.0" encoding="utf-8" standalone="yes"?>
<!DOCTYPE svg PUBLIC "-//W3C//DTD SVG 1.1//EN" "http://www.w3.org/Graphics/SVG/1.1/DTD/svg11.dtd">
<svg xmlns:xlink="http://www.w3.org/1999/xlink" viewBox="0 0 408 327" class="barcode-canvas" version="1.1" style="shape-rendering:crispEdges;" xmlns="http://www.w3.org/2000/svg">
  <g text-rendering="geometricPrecision">
    <rect x="0" y="0" width="408" height="327" fill="#ffffff" />
    <rect x="7" y="7" width="10" height="242" fill="#000000" />
    <rect x="22" y="7" width="5" height="242" fill="#000000" />
    <rect x="37" y="7" width="5" height="242" fill="#000000" />
    <rect x="62" y="7" width="5" height="242" fill="#000000" />
    <rect x="82" y="7" width="20" height="242" fill="#000000" />
    <rect x="107" y="7" width="5" height="242" fill="#000000" />
    <rect x="117" y="7" width="5" height="242" fill="#000000" />
    <rect x="127" y="7" width="5" height="242" fill="#000000" />
    <rect x="142" y="7" width="20" height="242" fill="#000000" />
    <rect x="172" y="7" width="5" height="242" fill="#000000" />
    <rect x="182" y="7" width="10" height="242" fill="#000000" />
    <rect x="202" y="7" width="5" height="242" fill="#000000" />
    <rect x="227" y="7" width="10" height="242" fill="#000000" />
    <rect x="257" y="7" width="5" height="242" fill="#000000" />
    <rect x="267" y="7" width="5" height="242" fill="#000000" />
    <rect x="282" y="7" width="5" height="242" fill="#000000" />
    <rect x="302" y="7" width="10" height="242" fill="#000000" />
    <rect x="327" y="7" width="5" height="242" fill="#000000" />
    <rect x="337" y="7" width="10" height="242" fill="#000000" />
    <rect x="362" y="7" width="15" height="242" fill="#000000" />
    <rect x="382" y="7" width="5" height="242" fill="#000000" />
    <rect x="392" y="7" width="10" height="242" fill="#000000" />
    <g transform="translate(142, 252)">
      <path d="M 32.109 36.013 C 32.109 37.991 31.853 39.756 31.34 41.309 C 30.828 42.861 30.088 44.172 29.121 45.242 C 28.154 46.311 26.986 47.128 25.616 47.692 C 24.247 48.256 22.698 48.538 20.969 48.538 C 19.358 48.538 17.882 48.256 16.542 47.692 C 15.201 47.128 14.044 46.311 13.07 45.242 C 12.096 44.172 11.342 42.861 10.807 41.309 C 10.272 39.756 10.005 37.991 10.005 36.013 C 10.005 33.376 10.452 31.132 11.345 29.279 C 12.239 27.426 13.517 26.012 15.179 25.038 C 16.842 24.064 18.823 23.577 21.123 23.577 C 23.32 23.577 25.243 24.067 26.891 25.049 C 28.539 26.03 29.821 27.448 30.736 29.301 C 31.652 31.154 32.109 33.391 32.109 36.013 Z M 13.784 36.013 C 13.784 37.947 14.041 39.624 14.553 41.045 C 15.066 42.466 15.857 43.564 16.926 44.341 C 17.996 45.117 19.373 45.505 21.057 45.505 C 22.727 45.505 24.1 45.117 25.177 44.341 C 26.254 43.564 27.048 42.466 27.561 41.045 C 28.074 39.624 28.33 37.947 28.33 36.013 C 28.33 34.094 28.074 32.435 27.561 31.036 C 27.048 29.637 26.257 28.557 25.188 27.795 C 24.119 27.034 22.734 26.653 21.035 26.653 C 16.025 26.653 13.784 30.154 13.784 36.013 Z M 50.544 23.577 C 56.549 23.577 60.409 27.7 60.409 35.991 C 60.409 38.73 59.999 41.03 59.179 42.891 C 58.358 44.751 57.205 46.157 55.718 47.109 C 54.231 48.062 52.477 48.538 50.456 48.538 C 49.181 48.538 48.061 48.369 47.094 48.032 C 46.127 47.695 45.299 47.241 44.611 46.67 C 43.922 46.099 43.351 45.476 42.897 44.802 L 42.633 44.802 C 42.721 45.945 42.897 47.776 42.897 48.977 L 42.897 58.865 L 39.228 58.865 L 39.228 24.016 L 42.238 24.016 L 42.721 27.576 L 42.897 27.576 C 43.366 26.843 43.937 26.173 44.611 25.565 C 45.285 24.957 46.109 24.474 47.083 24.115 C 48.057 23.756 49.211 23.577 50.544 23.577 Z M 49.906 26.653 C 48.236 26.653 46.892 26.975 45.874 27.62 C 44.856 28.264 44.113 29.227 43.644 30.509 C 43.175 31.791 42.926 33.398 42.897 35.332 L 42.897 36.035 C 42.897 38.071 43.12 39.792 43.567 41.199 C 44.014 42.605 44.754 43.674 45.786 44.407 C 46.819 45.139 48.207 45.505 49.95 45.505 C 51.444 45.505 52.69 45.103 53.686 44.297 C 54.682 43.491 55.425 42.367 55.916 40.924 C 56.407 39.481 56.652 37.822 56.652 35.947 C 56.652 30.264 54.477 26.653 49.906 26.653 Z M 76.858 23.577 C 78.909 23.577 80.666 24.031 82.131 24.939 C 83.596 25.847 84.717 27.118 85.493 28.751 C 86.269 30.385 86.658 32.292 86.658 34.475 L 86.658 36.738 L 70.024 36.738 C 70.112 42.393 72.939 45.417 77.891 45.417 C 80.937 45.417 83.061 44.854 85.581 43.77 L 85.581 46.978 C 83.149 48.062 80.989 48.538 77.737 48.538 C 75.422 48.538 73.404 48.065 71.683 47.12 C 69.962 46.176 68.625 44.788 67.673 42.957 C 66.721 41.125 66.245 38.884 66.245 36.233 C 66.245 33.64 66.681 31.395 67.552 29.498 C 68.424 27.601 69.654 26.14 71.244 25.115 C 72.833 24.089 74.704 23.577 76.858 23.577 Z M 76.814 26.565 C 72.917 26.565 70.53 29.246 70.09 33.816 L 82.834 33.816 C 82.82 32.38 82.596 31.117 82.164 30.026 C 81.732 28.934 81.077 28.085 80.198 27.477 C 79.319 26.869 78.191 26.565 76.814 26.565 Z M 105.016 23.577 C 110.729 23.577 113.695 26.228 113.695 32.41 L 113.695 48.098 L 110.091 48.098 L 110.091 32.651 C 110.091 28.638 108.29 26.653 104.51 26.653 C 99.178 26.653 97.259 29.744 97.259 35.486 L 97.259 48.098 L 93.612 48.098 L 93.612 24.016 L 96.556 24.016 L 97.106 27.488 L 97.303 27.488 C 97.816 26.638 98.468 25.924 99.259 25.345 C 100.05 24.767 100.936 24.327 101.918 24.027 C 102.899 23.727 103.932 23.577 105.016 23.577 Z " fill="#000000" shape-rendering="geometricPrecision" />
    </g>
  </g>
</svg>